<svg xmlns="http://www.w3.org/2000/svg" id="Capa_1" x="0" y="0" version="1.1" xml:space="preserve" viewBox="0 0 502.9 502.9">
	<style>
		path { fill: purple; }
		@media (prefers-color-scheme: dark) {
		path { fill: wheat; }
		}
	</style>
	<path d="M0 209.9v-35.46c3.84.07 7.7.1 11.52.4 6.14.47 12.32 1 18.37 2.2 6.09 1.21 12.15 2.55 18.05 4.5 3.05 1 6.07 2.05 9.05 3.24 3 1.2 5.93 2.48 8.85 3.85 11.4 5.37 22.13 12.43 31.97 20.29 4.96 3.96 9.83 8.01 14.7 12.08 4.56 3.82 9.14 7.64 14 11.09a68.88 68.88 0 0015.03 8.35c2.88 1.11 5.86 2 8.88 2.6 2.39.47 4.8.98 7.23 1.15 1.22.09 2.43.3 3.65.33l6.9.18c-.44 0 1.26.02-.94 0 1.46-.06 2.93-.1 4.4-.13 1.6-.03 3.19-.22 4.78-.34a57.59 57.59 0 0015.54-3.42c10.52-3.88 19.34-10.93 27.87-18 9.08-7.53 18.02-15.22 27.74-21.92 5.24-3.62 10.7-6.87 16.32-9.87 3.18-1.7 6.46-3.32 9.8-4.7 5.1-2.1 10.25-4.1 15.55-5.63a146.06 146.06 0 0118.83-4.22c4.08-.6 8.14-1.1 12.25-1.42 1.8-.13 3.61-.27 5.42-.39 1.7-.11 3.41-.09 5.11-.14 3.92-.1 7.82.02 11.74.13 3.5.1 7 .45 10.49.77 5.25.48 10.46 1.44 15.62 2.5a139.13 139.13 0 0135.02 12.35c10.34 5.27 19.93 11.84 29.04 19 4.61 3.65 9.1 7.43 13.6 11.2 4.38 3.67 8.75 7.41 13.4 10.72 2.25 1.6 4.51 3.16 6.87 4.58a77.4 77.4 0 003.42 1.95c1.29.69 2.66 1.4 4.02 1.93 1.45.56 2.86 1.14 4.34 1.62 1.16.38 2.3.73 3.48 1.05 2.94.78 5.9 1.27 8.92 1.71 3.98.61 8.05.57 12.07.68l-.95 35.44-6.06-.16c-2.39-.06-4.77-.31-7.15-.51l-1.26 12.8c2.48.21 4.98.5 7.47.56l6.65.18-.96 35.44c-4.15-.1-8.27-.22-12.4-.54-6.12-.47-12.19-1.23-18.2-2.41a144.5 144.5 0 01-18-4.72 170.04 170.04 0 01-9.08-3.37 144.18 144.18 0 01-25.16-13.4 202.76 202.76 0 01-15.3-11.2c-4.95-3.94-9.77-8.02-14.63-12.07-4.55-3.8-9.14-7.56-14.03-10.92a65.03 65.03 0 00-15.27-7.96c-1.43-.5-2.86-.9-4.32-1.3-1.52-.41-3.05-.7-4.58-1.03-2.03-.44-4.15-.71-6.23-.86l-3.37-.29c-1.83-.17-3.71-.1-5.56-.16l.94-.01-4.28.11-2.8.08c-.67.01-1.34.14-2 .2-2.2.22-4.4.44-6.59.82-2.84.5-5.66 1.2-8.4 2.12-10.6 3.55-19.52 10.38-28.05 17.4-9.07 7.47-17.93 15.2-27.55 21.97-5.48 3.87-11.2 7.4-17.12 10.56-1.9 1.01-3.82 1.98-5.77 2.9-1.4.66-2.78 1.38-4.2 1.96-1.77.73-3.53 1.44-5.3 2.15-2.97 1.19-6 2.17-9.04 3.17-3.05 1-6.19 1.75-9.3 2.57-1.55.4-3.15.69-4.72 1-1.58.32-3.15.68-4.74.93-4.3.67-8.62 1.26-12.97 1.61-1.83.15-3.66.34-5.5.44-1.9.1-3.8.12-5.7.17-3 .08-5.97.06-8.97-.02a163.5 163.5 0 01-21.57-1.91c-6.4-.94-12.77-2.41-18.97-4.25a138.88 138.88 0 01-17.24-6.39c-10.86-4.85-21-11.1-30.5-18.2-9.19-6.86-17.72-14.5-26.66-21.65a110.8 110.8 0 00-13.65-9.56 56.83 56.83 0 00-15.59-6.23 74.63 74.63 0 00-10.86-1.62c-2.47-.2-4.93-.22-7.4-.32v-35.46l5.93.16c2.36.06 4.72.31 7.07.5l1.31-12.8c-2.58-.21-5.16-.49-7.75-.56L0 209.9zm383.87 24.56c10.54 5.65 19.81 13.29 28.95 20.93a492.15 492.15 0 0017.36 14.04l7.67-10.34c-8.94-6.82-17.37-14.26-26.16-21.27-6.82-5.45-13.99-10.53-21.69-14.68l-6.13 11.32zm-106.11 4.4a92.81 92.81 0 0132.6-13.67 114.67 114.67 0 0119.77-2.3l-.35-12.87c-2.26.06-4.5.2-6.76.38-1.54.13-3.08.2-4.6.42l-4.63.65a104.2 104.2 0 00-18.5 4.53 104.3 104.3 0 00-24.54 12.06l7 10.8zm-105.73 54.03c11.36-.3 22.73-2.07 33.52-5.67 8.98-2.99 17.57-7.14 25.47-12.36l-7-10.8a92.82 92.82 0 01-32.6 13.67 114.3 114.3 0 01-19.81 2.3l.42 12.87zM63.92 243.83c8.94 6.82 17.37 14.26 26.16 21.27 6.83 5.45 13.99 10.54 21.69 14.68l6.13-11.31c-10.54-5.66-19.81-13.3-28.94-20.94a487.73 487.73 0 00-17.37-14.03l-7.67 10.33z" />
</svg>
